HIERARCHY
ROOT Hips
{
  OFFSET -3.66935 93.8938 9.47546
  CHANNELS 6 Xposition Yposition Zposition Zrotation Xrotation Yrotation
  JOINT Spine
  {
    OFFSET 0 8.59463 0
    CHANNELS 6 Xposition Yposition Zposition Zrotation Xrotation Yrotation
    JOINT Spine1
    {
      OFFSET 0 8.59463 0
      CHANNELS 6 Xposition Yposition Zposition Zrotation Xrotation Yrotation
      JOINT Spine2
      {
        OFFSET 0 8.59463 0
        CHANNELS 6 Xposition Yposition Zposition Zrotation Xrotation Yrotation
        JOINT Spine3
        {
          OFFSET 0 8.59463 0
          CHANNELS 6 Xposition Yposition Zposition Zrotation Xrotation Yrotation
          JOINT Neck
          {
            OFFSET 0 18.2636 0
            CHANNELS 6 Xposition Yposition Zposition Zrotation Xrotation Yrotation
            JOINT Head
            {
              OFFSET 0 11.6027 0
              CHANNELS 6 Xposition Yposition Zposition Zrotation Xrotation Yrotation
              End Site
              {
                OFFSET 0 21.7552 0
              }
            }
          }
          JOINT LeftShoulder
          {
            OFFSET 5 17 0
            CHANNELS 6 Xposition Yposition Zposition Zrotation Xrotation Yrotation
            JOINT LeftShoulder2
            {
              OFFSET 7.25 0 0
              CHANNELS 6 Xposition Yposition Zposition Zrotation Xrotation Yrotation
              JOINT LeftArm
              {
                OFFSET 7.25 0 0
                CHANNELS 6 Xposition Yposition Zposition Zrotation Xrotation Yrotation
                JOINT LeftForeArm
                {
                  OFFSET 0 -30.1395 -2
                  CHANNELS 6 Xposition Yposition Zposition Zrotation Xrotation Yrotation
                  JOINT LeftHand
                  {
                    OFFSET 0 -23.8605 2
                    CHANNELS 6 Xposition Yposition Zposition Zrotation Xrotation Yrotation
                    JOINT LeftHandThumb1
                    {
                      OFFSET -0.5 -1.5 2.65
                      CHANNELS 6 Xposition Yposition Zposition Zrotation Xrotation Yrotation
                      JOINT LeftHandThumb2
                      {
                        OFFSET 0 -3.8 3.7
                        CHANNELS 6 Xposition Yposition Zposition Zrotation Xrotation Yrotation
                        JOINT LeftHandThumb3
                        {
                          OFFSET 0 -3 2.7
                          CHANNELS 6 Xposition Yposition Zposition Zrotation Xrotation Yrotation
                          End Site
                          {
                            OFFSET 0 -2.3 1.8
                          }
                        }
                      }
                    }
                    JOINT LeftHandIndex
                    {
                      OFFSET 0 -1.9 1.6
                      CHANNELS 6 Xposition Yposition Zposition Zrotation Xrotation Yrotation
                      JOINT LeftHandIndex1
                      {
                        OFFSET 0 -8.3 1.9
                        CHANNELS 6 Xposition Yposition Zposition Zrotation Xrotation Yrotation
                        JOINT LeftHandIndex2
                        {
                          OFFSET 0 -4.5 0
                          CHANNELS 6 Xposition Yposition Zposition Zrotation Xrotation Yrotation
                          JOINT LeftHandIndex3
                          {
                            OFFSET 0 -3.4 0
                            CHANNELS 6 Xposition Yposition Zposition Zrotation Xrotation Yrotation
                            End Site
                            {
                              OFFSET 0 -2.6 0
                            }
                          }
                        }
                      }
                    }
                    JOINT LeftHandMiddle
                    {
                      OFFSET -0.25 -2.2 0.4
                      CHANNELS 6 Xposition Yposition Zposition Zrotation Xrotation Yrotation
                      JOINT LeftHandMiddle1
                      {
                        OFFSET 0 -8.3 1
                        CHANNELS 6 Xposition Yposition Zposition Zrotation Xrotation Yrotation
                        JOINT LeftHandMiddle2
                        {
                          OFFSET 0 -4.65 0
                          CHANNELS 6 Xposition Yposition Zposition Zrotation Xrotation Yrotation
                          JOINT LeftHandMiddle3
                          {
                            OFFSET 0 -3.3 0
                            CHANNELS 6 Xposition Yposition Zposition Zrotation Xrotation Yrotation
                            End Site
                            {
                              OFFSET 0 -2.7 0
                            }
                          }
                        }
                      }
                    }
                    JOINT LeftHandRing
                    {
                      OFFSET -0.5 -2.15 -0.8
                      CHANNELS 6 Xposition Yposition Zposition Zrotation Xrotation Yrotation
                      JOINT LeftHandRing1
                      {
                        OFFSET 0 -7.75 -0.2
                        CHANNELS 6 Xposition Yposition Zposition Zrotation Xrotation Yrotation
                        JOINT LeftHandRing2
                        {
                          OFFSET 0 -3.8 0
                          CHANNELS 6 Xposition Yposition Zposition Zrotation Xrotation Yrotation
                          JOINT LeftHandRing3
                          {
                            OFFSET 0 -3.4 0
                            CHANNELS 6 Xposition Yposition Zposition Zrotation Xrotation Yrotation
                            End Site
                            {
                              OFFSET 0 -2.6 0
                            }
                          }
                        }
                      }
                    }
                    JOINT LeftHandPinky
                    {
                      OFFSET -0.75 -1.75 -1.85
                      CHANNELS 6 Xposition Yposition Zposition Zrotation Xrotation Yrotation
                      JOINT LeftHandPinky1
                      {
                        OFFSET 0 -7.15 -1
                        CHANNELS 6 Xposition Yposition Zposition Zrotation Xrotation Yrotation
                        JOINT LeftHandPinky2
                        {
                          OFFSET 0 -3 0
                          CHANNELS 6 Xposition Yposition Zposition Zrotation Xrotation Yrotation
                          JOINT LeftHandPinky3
                          {
                            OFFSET 0 -2.35 0
                            CHANNELS 6 Xposition Yposition Zposition Zrotation Xrotation Yrotation
                            End Site
                            {
                              OFFSET 0 -2.1 0
                            }
                          }
                        }
                      }
                    }
                  }
                }
              }
            }
          }
          JOINT RightShoulder
          {
            OFFSET -5 17 0
            CHANNELS 6 Xposition Yposition Zposition Zrotation Xrotation Yrotation
            JOINT RightShoulder2
            {
              OFFSET -7.25 0 0
              CHANNELS 6 Xposition Yposition Zposition Zrotation Xrotation Yrotation
              JOINT RightArm
              {
                OFFSET -7.25 0 0
                CHANNELS 6 Xposition Yposition Zposition Zrotation Xrotation Yrotation
                JOINT RightForeArm
                {
                  OFFSET 0 -30.1395 -2
                  CHANNELS 6 Xposition Yposition Zposition Zrotation Xrotation Yrotation
                  JOINT RightHand
                  {
                    OFFSET 0 -23.8605 2
                    CHANNELS 6 Xposition Yposition Zposition Zrotation Xrotation Yrotation
                    JOINT RightHandThumb1
                    {
                      OFFSET 0.5 -1.5 2.65
                      CHANNELS 6 Xposition Yposition Zposition Zrotation Xrotation Yrotation
                      JOINT RightHandThumb2
                      {
                        OFFSET 0 -3.8 3.7
                        CHANNELS 6 Xposition Yposition Zposition Zrotation Xrotation Yrotation
                        JOINT RightHandThumb3
                        {
                          OFFSET 0 -3 2.7
                          CHANNELS 6 Xposition Yposition Zposition Zrotation Xrotation Yrotation
                          End Site
                          {
                            OFFSET 0 -2.3 1.8
                          }
                        }
                      }
                    }
                    JOINT RightHandIndex
                    {
                      OFFSET 0 -1.9 1.6
                      CHANNELS 6 Xposition Yposition Zposition Zrotation Xrotation Yrotation
                      JOINT RightHandIndex1
                      {
                        OFFSET 0 -8.3 1.9
                        CHANNELS 6 Xposition Yposition Zposition Zrotation Xrotation Yrotation
                        JOINT RightHandIndex2
                        {
                          OFFSET 0 -4.5 0
                          CHANNELS 6 Xposition Yposition Zposition Zrotation Xrotation Yrotation
                          JOINT RightHandIndex3
                          {
                            OFFSET 0 -3.4 0
                            CHANNELS 6 Xposition Yposition Zposition Zrotation Xrotation Yrotation
                            End Site
                            {
                              OFFSET 0 -2.6 0
                            }
                          }
                        }
                      }
                    }
                    JOINT RightHandMiddle
                    {
                      OFFSET 0.25 -2.2 0.4
                      CHANNELS 6 Xposition Yposition Zposition Zrotation Xrotation Yrotation
                      JOINT RightHandMiddle1
                      {
                        OFFSET 0 -8.3 1
                        CHANNELS 6 Xposition Yposition Zposition Zrotation Xrotation Yrotation
                        JOINT RightHandMiddle2
                        {
                          OFFSET 0 -4.65 0
                          CHANNELS 6 Xposition Yposition Zposition Zrotation Xrotation Yrotation
                          JOINT RightHandMiddle3
                          {
                            OFFSET 0 -3.3 0
                            CHANNELS 6 Xposition Yposition Zposition Zrotation Xrotation Yrotation
                            End Site
                            {
                              OFFSET 0 -2.7 0
                            }
                          }
                        }
                      }
                    }
                    JOINT RightHandRing
                    {
                      OFFSET 0.5 -2.15 -0.8
                      CHANNELS 6 Xposition Yposition Zposition Zrotation Xrotation Yrotation
                      JOINT RightHandRing1
                      {
                        OFFSET 0 -7.75 -0.2
                        CHANNELS 6 Xposition Yposition Zposition Zrotation Xrotation Yrotation
                        JOINT RightHandRing2
                        {
                          OFFSET 0 -3.8 0
                          CHANNELS 6 Xposition Yposition Zposition Zrotation Xrotation Yrotation
                          JOINT RightHandRing3
                          {
                            OFFSET 0 -3.4 0
                            CHANNELS 6 Xposition Yposition Zposition Zrotation Xrotation Yrotation
                            End Site
                            {
                              OFFSET 0 -2.6 0
                            }
                          }
                        }
                      }
                    }
                    JOINT RightHandPinky
                    {
                      OFFSET 0.75 -1.75 -1.85
                      CHANNELS 6 Xposition Yposition Zposition Zrotation Xrotation Yrotation
                      JOINT RightHandPinky1
                      {
                        OFFSET 0 -7.15 -1
                        CHANNELS 6 Xposition Yposition Zposition Zrotation Xrotation Yrotation
                        JOINT RightHandPinky2
                        {
                          OFFSET 0 -3 0
                          CHANNELS 6 Xposition Yposition Zposition Zrotation Xrotation Yrotation
                          JOINT RightHandPinky3
                          {
                            OFFSET 0 -2.35 0
                            CHANNELS 6 Xposition Yposition Zposition Zrotation Xrotation Yrotation
                            End Site
                            {
                              OFFSET 0 -2.1 0
                            }
                          }
                        }
                      }
                    }
                  }
                }
              }
            }
          }
        }
      }
    }
  }
  JOINT LeftUpLeg
  {
    OFFSET 12.5 0 0
    CHANNELS 6 Xposition Yposition Zposition Zrotation Xrotation Yrotation
    JOINT LeftLeg
    {
      OFFSET 0 -45.2616 -1
      CHANNELS 6 Xposition Yposition Zposition Zrotation Xrotation Yrotation
      JOINT LeftFoot
      {
        OFFSET 0 -41.2384 -2
        CHANNELS 6 Xposition Yposition Zposition Zrotation Xrotation Yrotation
        JOINT LeftToeBase
        {
          OFFSET 0 -7.5 12.5
          CHANNELS 6 Xposition Yposition Zposition Zrotation Xrotation Yrotation
          JOINT LeftFootToe
          {
            OFFSET 0 0 4
            CHANNELS 6 Xposition Yposition Zposition Zrotation Xrotation Yrotation
            End Site
            {
              OFFSET 0 0 0
            }
          }
        }
      }
    }
  }
  JOINT RightUpLeg
  {
    OFFSET -12.5 0 0
    CHANNELS 6 Xposition Yposition Zposition Zrotation Xrotation Yrotation
    JOINT RightLeg
    {
      OFFSET 0 -45.2616 -1
      CHANNELS 6 Xposition Yposition Zposition Zrotation Xrotation Yrotation
      JOINT RightFoot
      {
        OFFSET 0 -41.2384 -2
        CHANNELS 6 Xposition Yposition Zposition Zrotation Xrotation Yrotation
        JOINT RightToeBase
        {
          OFFSET 0 -7.5 12.5
          CHANNELS 6 Xposition Yposition Zposition Zrotation Xrotation Yrotation
          JOINT RightFootToe
          {
            OFFSET 0 0 4
            CHANNELS 6 Xposition Yposition Zposition Zrotation Xrotation Yrotation
            End Site
            {
              OFFSET 0 0 0
            }
          }
        }
      }
    }
  }
}
MOTION
Frames:	4
Frame Time:	0.0111111
0 94 0 0 0 -0 0 8.59463 0 0 0 -0 0 8.59463 0 0 0 -0 0 8.59463 0 0 0 -0 0 8.59463 0 0 0 -0 0 18.2636 0 0 0 -0 0 11.6027 0 0 0 -0 5 17 0 0 0 -0 7.25 0 0 0 0 -0 7.25 0 0 90.0002 0 -0 0 -30.1395 -2 0 0 -0 0 -23.8605 2 0 0 -0 -0.5 -1.5 2.65 0 0 -0 2.84217e-14 -3.8 3.7 0 0 -0 0 -3 2.7 0 0 -0 0 -1.9 1.6 0 0 -0 0 -8.3 1.9 0 0 -0 2.84217e-14 -4.5 0 0 0 -0 0 -3.4 0 0 0 -0 -0.25 -2.2 0.4 0 0 -0 0 -8.3 1 0 0 -0 0 -4.65 0 0 0 -0 0 -3.3 0 0 0 -0 -0.5 -2.15 -0.8 0 0 -0 0 -7.75 -0.2 0 0 -0 0 -3.8 0 0 0 -0 0 -3.4 0 0 0 -0 -0.75 -1.75 -1.85 0 0 -0 -2.84217e-14 -7.15 -1 0 0 -0 2.84217e-14 -3 0 0 0 -0 -2.84217e-14 -2.35 0 0 0 -0 -5 17 0 0 0 -0 -7.25 0 0 0 0 -0 -7.25 0 0 -90.0002 0 -0 0 -30.1395 -2 0 0 -0 0 -23.8605 2 0 0 -0 0.5 -1.5 2.65 0 0 -0 -2.84217e-14 -3.8 3.7 0 0 -0 0 -3 2.7 0 0 -0 0 -1.9 1.6 0 0 -0 0 -8.3 1.9 0 0 -0 -2.84217e-14 -4.5 0 0 0 -0 0 -3.4 0 0 0 -0 0.25 -2.2 0.4 0 0 -0 0 -8.3 1 0 0 -0 0 -4.65 0 0 0 -0 0 -3.3 0 0 0 -0 0.5 -2.15 -0.8 0 0 -0 0 -7.75 -0.2 0 0 -0 0 -3.8 0 0 0 -0 0 -3.4 0 0 0 -0 0.75 -1.75 -1.85 0 0 -0 2.84217e-14 -7.15 -1 0.00662815 0 -0 -2.84217e-14 -3 0 7.76503e-19 0 -0 0 -2.35 0 7.76503e-19 0 -0 12.5 0 0 0 0 -0 0 -45.2616 -1 0 0 -0 0 -41.2384 -2 0 0 -0 0 -7.5 12.5 0 0 -0 0 0 4 -0 0 0.00987039 -12.5 0 0 0 0 -0 0 -45.2616 -1 -0.0027743 0 -0 -1.77636e-15 -41.2384 -2 0 0 -0 1.77636e-15 -7.5 12.5 0 0 -0 0 0 4 -3.23501e-29 -3.544e-24 -0.000523003 
-3.39522 93.8826 9.3325 -0.0297807 0.0497706 120.895 0 8.59463 0 0.176453 0.561339 0.383257 0 8.59463 0 -0.117359 -0.280442 -0.596448 -8.88178e-16 8.59463 1.77636e-15 -0.058315 -0.140375 -0.298152 0 8.59463 0 -0.0583141 -0.140373 -0.298145 1.77636e-15 18.2636 8.88178e-16 0.238485 0.100954 0.117235 -8.88178e-16 11.6027 0 -0.567761 -0.194919 0.27298 5 17 8.88178e-16 1.19141 1.05048 3.49816 7.25 -2.84217e-14 1.77636e-15 0.0643333 -0.540316 -0.768869 7.25 -2.84217e-14 0 -0.258753 -3.07793 -2.60089 0 -30.1395 -2 -2.67316 -3.17647 -9.58474 0 -23.8605 2 0.205383 2.05219 -8.86795 -0.5 -1.5 2.65 0.841618 -1.8529 1.02965 1.77636e-15 -3.8 3.7 -5.35633e-16 1.24337 6.36261e-15 0 -3 2.7 -1.19271e-15 -1.2921e-15 -0 0 -1.9 1.6 -1.98785e-16 1.06847e-15 1.59028e-15 0 -8.3 1.9 -0.596221 -0.319472 -1.5903e-15 0 -4.5 -2.22045e-16 7.5864e-33 2.73329e-16 -1.59028e-15 -1.77636e-15 -3.4 1.11022e-15 8.27607e-33 2.98177e-16 -1.59028e-15 -0.25 -2.2 0.4 -1.98785e-16 1.06847e-15 1.59028e-15 3.55271e-15 -8.3 1 -0.447221 -0.277024 3.18059e-15 0 -4.65 -2.22045e-16 -1.98785e-16 -9.69075e-16 3.18055e-15 0 -3.3 6.66134e-16 -1.98785e-16 -1.81391e-15 3.18055e-15 -0.5 -2.15 -0.8 -1.98785e-16 1.06847e-15 1.59028e-15 1.77636e-15 -7.75 -0.2 -0.149282 -0.192144 1.59029e-15 -1.77636e-15 -3.8 4.44089e-16 -1.98785e-16 1.44119e-15 1.59028e-15 -1.77636e-15 -3.4 8.88178e-16 0 1.46604e-15 -0 -0.75 -1.75 -1.85 -1.98785e-16 1.06847e-15 1.59028e-15 0 -7.15 -1 4.1548e-18 -0.149692 1.59028e-15 0 -3 -8.88178e-16 -1.98785e-16 1.73937e-16 1.59028e-15 0 -2.35 2.66454e-15 -3.97569e-16 9.93923e-17 1.59028e-15 -5 17 0 -0.532159 0.472387 -1.26402 -7.25 0 -1.77636e-15 -0.133679 0.409467 4.04255 -7.25 -2.84217e-14 0 0.979176 -2.57196 4.24205 3.55271e-15 -30.1395 -2 2.14068 -0.579073 6.13382 3.55271e-15 -23.8605 2 -1.07305 0.401365 -0.291584 0.5 -1.5 2.65 0.245121 -3.3892 -2.86823 3.55271e-15 -3.8 3.7 0.0569197 2.4758 3.18353e-15 0 -3 2.7 -3.89248e-16 0.149903 -3.18057e-15 0 -1.9 1.6 1.98785e-16 -3.97569e-16 -0 3.55271e-15 -8.3 1.9 0.0172301 -1.12062 -6.36233e-15 3.55271e-15 -4.5 3.55271e-15 -1.98626e-31 -1.19271e-15 -9.54166e-15 0 -3.4 0 0 0 -1.27222e-14 0.25 -2.2 0.4 1.98785e-16 -3.97569e-16 -0 0 -8.3 1 0.0145822 -1.01485 3.18105e-15 -3.55271e-15 -4.65 -1.77636e-15 0 0 -6.36111e-15 -3.55271e-15 -3.3 0 0 0 -0 0.5 -2.15 -0.8 1.98785e-16 -3.97569e-16 -0 0 -7.75 -0.2 0.00929605 -0.803705 -0 0 -3.8 0 3.97569e-16 7.95139e-16 3.18055e-15 0 -3.4 3.55271e-15 3.97569e-16 0 -3.18055e-15 0.75 -1.75 -1.85 1.98785e-16 -3.97569e-16 -0 0 -7.15 -1 0.00662815 -0.697793 -3.18079e-15 -3.55271e-15 -3 1.77636e-15 -2.20695e-32 -3.97569e-16 -3.18055e-15 0 -2.35 0 3.97569e-16 -1.19271e-15 -3.18055e-15 12.5 -1.42109e-14 0 -0.269226 -2.70868 -3.24574 0 -45.2616 -1 3.59479e-10 4.82247 0.178116 0 -41.2384 -2 0.0514273 -2.10638 3.6363 -8.88178e-16 -7.5 12.5 -4.85314e-20 0 -9.54166e-15 0 0 4 -0.505956 0.107691 0.00987041 -12.5 0 1.77636e-15 -0.160721 -0.862626 -2.24344 0 -45.2616 -1 -6.75166e-05 3.99884 -0.0388145 0 -41.2384 -2 0.0714076 -3.13284 2.43275 -3.55271e-15 -7.5 12.5 -4.85314e-20 -2.42657e-20 -6.36111e-15 0 -3.46945e-18 4 -0.134701 -0.415263 -0.000523016 
-3.39257 93.8825 9.33557 -0.0297815 0.0497701 120.896 0 8.59463 -8.88178e-16 0.176412 0.561578 0.383073 -8.88178e-16 8.59463 0 -0.117387 -0.280562 -0.59584 0 8.59463 0 -0.058329 -0.140435 -0.297851 0 8.59463 1.77636e-15 -0.058328 -0.140432 -0.297841 8.88178e-16 18.2636 0 0.238218 0.101915 0.117629 0 11.6027 0 -0.568462 -0.193236 0.273878 5 17 0 1.19112 1.05244 3.49653 7.25 0 -1.77636e-15 0.0644664 -0.541659 -0.7691 7.25 0 0 -0.254229 -3.06886 -2.58457 3.55271e-15 -30.1395 -2 -2.68457 -3.19221 -9.60157 1.77636e-15 -23.8605 2 0.204052 2.05437 -8.879 -0.5 -1.5 2.65 0.844417 -1.84944 1.02734 3.55271e-15 -3.8 3.7 0 1.24371 -0 0 -3 2.7 7.95139e-16 2.18663e-15 -1.59028e-15 1.77636e-15 -1.9 1.6 -1.98785e-16 -1.19271e-15 3.18055e-15 -1.77636e-15 -8.3 1.9 -0.606402 -0.320505 3.1806e-15 1.77636e-15 -4.5 0 -0 -1.56543e-15 -0 -1.77636e-15 -3.4 -6.66134e-16 9.93923e-17 -1.55301e-15 -1.59028e-15 -0.25 -2.2 0.4 -1.98785e-16 -1.19271e-15 3.18055e-15 0 -8.3 1 -0.454855 -0.277542 3.18059e-15 1.77636e-15 -4.65 -1.11022e-15 -9.93923e-17 -1.04362e-15 -0 0 -3.3 6.66134e-16 -2.98177e-16 -1.83876e-15 -1.59028e-15 -0.5 -2.15 -0.8 -1.98785e-16 -1.19271e-15 3.18055e-15 0 -7.75 -0.2 -0.151823 -0.191639 3.18057e-15 -1.77636e-15 -3.8 -8.88178e-16 0 5.71506e-16 -0 0 -3.4 0 -1.98785e-16 5.71506e-16 1.59028e-15 -0.75 -1.75 -1.85 -1.98785e-16 -1.19271e-15 3.18055e-15 0 -7.15 -1 4.12651e-18 -0.148673 1.59028e-15 0 -3 -8.88178e-16 -1.98785e-16 -1.88845e-15 4.77083e-15 0 -2.35 0 1.98785e-16 -1.9133e-15 6.36111e-15 -5 17 8.88178e-16 -0.532325 0.472824 -1.26603 -7.25 2.84217e-14 0 -0.134107 0.410276 4.04246 -7.25 0 0 0.980598 -2.57123 4.23853 0 -30.1395 -2 2.13946 -0.580108 6.12886 3.55271e-15 -23.8605 2 -1.06954 0.404517 -0.290528 0.5 -1.5 2.65 0.245929 -3.386 -2.86995 3.55271e-15 -3.8 3.7 0.0569189 2.4726 -6.36704e-15 -3.55271e-15 -3 2.7 -8.3213e-18 0.149903 3.18057e-15 0 -1.9 1.6 1.98785e-16 -1.98785e-16 -9.54166e-15 0 -8.3 1.9 0.0172625 -1.12168 -3.18116e-15 0 -4.5 -1.77636e-15 0 0 -1.59028e-14 0 -3.4 0 3.97569e-16 3.97569e-16 -1.90833e-14 0.25 -2.2 0.4 1.98785e-16 -1.98785e-16 -9.54166e-15 0 -8.3 1 0.0146028 -1.01545 -0 0 -4.65 1.77636e-15 -7.95139e-16 0 -6.36111e-15 -3.55271e-15 -3.3 0 -3.97569e-16 -7.95139e-16 -0 0.5 -2.15 -0.8 1.98785e-16 -1.98785e-16 -9.54166e-15 0 -7.75 -0.2 0.00929268 -0.803366 -3.18087e-15 0 -3.8 0 -1.32417e-31 1.19271e-15 6.36111e-15 3.55271e-15 -3.4 3.55271e-15 3.97569e-16 -3.97569e-16 9.54166e-15 0.75 -1.75 -1.85 1.98785e-16 -1.98785e-16 -9.54166e-15 -3.55271e-15 -7.15 -1 0.00662815 -0.696989 -0 0 -3 0 -0 0 3.18055e-15 0 -2.35 0 2.20695e-32 -3.97569e-16 3.18055e-15 12.5 0 0 -0.269738 -2.70885 -3.24519 8.88178e-16 -45.2616 -1 -5.5492e-10 4.82343 0.178314 0 -41.2384 -2 0.0518398 -2.10668 3.65577 -8.88178e-16 -7.5 12.5 2.72989e-20 -1.33461e-19 -9.54166e-15 -1.77636e-15 -6.77626e-21 4 -0.505517 0.10776 0.00987041 -12.5 0 -1.77636e-15 -0.161308 -0.862207 -2.24304 0 -45.2616 -1 1.81157e-10 3.99928 -0.0397783 0 -41.2384 -2 0.0720476 -3.13614 2.4324 0 -7.5 12.5 1.94126e-19 -5.82377e-19 6.36111e-15 0 -6.93889e-18 4 -0.135217 -0.412826 -0.000523016 
-3.39034 93.8825 9.33776 -0.0297463 0.0498625 120.896 8.88178e-16 8.59463 0 0.175935 0.561834 0.383394 0 8.59463 0 -0.117419 -0.280808 -0.595003 1.77636e-15 8.59463 0 -0.0583326 -0.14046 -0.297409 0 8.59463 8.88178e-16 -0.0583316 -0.140457 -0.297397 8.88178e-16 18.2636 0 0.237606 0.10392 0.117653 0 11.6027 0 -0.568969 -0.191008 0.274185 5 17 0 1.19099 1.05492 3.49484 7.25 2.84217e-14 -1.77636e-15 0.0645702 -0.543319 -0.769686 7.25 0 0 -0.249508 -3.05936 -2.56831 0 -30.1395 -2 -2.69743 -3.20873 -9.61551 0 -23.8605 2 0.20063 2.05391 -8.89084 -0.5 -1.5 2.65 0.848676 -1.85108 1.02703 -1.77636e-15 -3.8 3.7 -3.45822e-17 1.24576 1.59065e-15 0 -3 2.7 0 1.54058e-15 -0 0 -1.9 1.6 6.20706e-33 -2.23633e-16 1.59028e-15 1.77636e-15 -8.3 1.9 -0.617544 -0.320253 1.5903e-15 0 -4.5 4.44089e-16 -0 -1.63997e-15 -0 0 -3.4 -8.88178e-16 -2.98177e-16 -1.68967e-15 -0 -0.25 -2.2 0.4 6.20706e-33 -2.23633e-16 1.59028e-15 1.77636e-15 -8.3 1 -0.463212 -0.277589 1.5903e-15 -1.77636e-15 -4.65 1.11022e-15 1.98785e-16 -7.45443e-16 1.59028e-15 -1.77636e-15 -3.3 6.66134e-16 1.98785e-16 -1.59028e-15 -0 -0.5 -2.15 -0.8 6.20706e-33 -2.23633e-16 1.59028e-15 0 -7.75 -0.2 -0.154614 -0.192895 3.18057e-15 0 -3.8 -1.77636e-15 1.98785e-16 -5.71506e-16 1.59028e-15 -1.77636e-15 -3.4 8.88178e-16 3.97569e-16 -5.46658e-16 -0 -0.75 -1.75 -1.85 6.20706e-33 -2.23633e-16 1.59028e-15 0 -7.15 -1 4.21905e-18 -0.152007 1.59028e-15 0 -3 0 1.98785e-16 -6.4605e-16 1.59028e-15 0 -2.35 0 -0 -1.41634e-15 -0 -5 17 8.88178e-16 -0.532383 0.472867 -1.26814 -7.25 2.84217e-14 1.77636e-15 -0.133936 0.410152 4.04359 -7.25 2.84217e-14 0 0.979032 -2.5702 4.23823 0 -30.1395 -2 2.13851 -0.580152 6.1234 0 -23.8605 2 -1.0643 0.404117 -0.291929 0.5 -1.5 2.65 0.246108 -3.38339 -2.8723 0 -3.8 3.7 0.0569189 2.46809 9.55052e-15 0 -3 2.7 3.97569e-16 0.149903 -0 3.55271e-15 -1.9 1.6 1.98785e-16 0 1.27222e-14 0 -8.3 1.9 0.0173099 -1.12319 6.36233e-15 -3.55271e-15 -4.5 0 -7.95139e-16 0 -3.18055e-15 0 -3.4 1.77636e-15 -7.95139e-16 3.97569e-16 -3.18055e-15 0.25 -2.2 0.4 1.98785e-16 0 1.27222e-14 -3.55271e-15 -8.3 1 0.0146467 -1.0164 6.36211e-15 0 -4.65 0 -3.97569e-16 7.95139e-16 -6.36111e-15 -3.55271e-15 -3.3 0 3.97569e-16 0 -9.54166e-15 0.5 -2.15 -0.8 1.98785e-16 0 1.27222e-14 -3.55271e-15 -7.75 -0.2 0.00929268 -0.803446 3.18087e-15 3.55271e-15 -3.8 0 -3.97569e-16 3.97569e-16 6.36111e-15 0 -3.4 0 -3.97569e-16 0 3.18055e-15 0.75 -1.75 -1.85 1.98785e-16 0 1.27222e-14 0 -7.15 -1 0.00662815 -0.696422 6.36158e-15 0 -3 -1.77636e-15 3.97569e-16 1.19271e-15 -3.18055e-15 0 -2.35 -1.77636e-15 3.97569e-16 7.95139e-16 -3.18055e-15 12.5 1.42109e-14 0 -0.270072 -2.70834 -3.24456 0 -45.2616 -1 -1.79987e-06 4.8233 0.17834 0 -41.2384 -2 0.0527412 -2.10702 3.67556 1.77636e-15 -7.5 12.5 -9.70628e-20 9.70628e-20 9.54166e-15 0 1.35525e-20 4 -0.505428 0.107722 0.00986846 -12.5 2.84217e-14 8.88178e-16 -0.161788 -0.86213 -2.24174 0 -45.2616 -1 4.46739e-05 4.00033 -0.0404082 3.55271e-15 -41.2384 -2 0.0724724 -3.13773 2.43177 0 -7.5 12.5 -1.94126e-19 -1.94126e-19 -6.36111e-15 0 -6.93889e-18 4 -0.135184 -0.41281 -0.000523016 
